<?xml version="1.0" encoding="UTF-8"?>
<svg xmlns="http://www.w3.org/2000/svg" xmlns:xlink="http://www.w3.org/1999/xlink" width="20pt" height="20pt" viewBox="0 0 20 20" version="1.1">
<g id="surface1">
<path style=" stroke:none;fill-rule:nonzero;fill:rgb(23.921569%,68.235294%,91.372549%);fill-opacity:1;" d="M 10 1.25 C 5.167969 1.25 1.25 5.167969 1.25 10 C 1.25 14.832031 5.167969 18.75 10 18.75 C 14.832031 18.75 18.75 14.832031 18.75 10 C 18.75 5.167969 14.832031 1.25 10 1.25 Z M 10 1.25 "/>
<path style=" stroke:none;fill-rule:nonzero;fill:rgb(100%,100%,100%);fill-opacity:1;" d="M 10 2.5 L 10 3.75 C 6.546875 3.75 3.75 6.546875 3.75 10 C 3.75 13.453125 6.546875 16.25 10 16.25 C 13.453125 16.25 16.25 13.453125 16.25 10 L 13.75 10 C 13.75 12.070312 12.070312 13.75 10 13.75 C 7.929688 13.75 6.25 12.070312 6.25 10 C 6.25 7.929688 7.929688 6.25 10 6.25 L 10 7.5 L 13.75 5 Z M 10 2.5 "/>
</g>
</svg>
